<mxfile host="app.diagrams.net" agent="Mozilla/5.0 (Windows NT 10.0; Win64; x64) AppleWebKit/537.36 (KHTML, like Gecko) Chrome/126.0.0.0 Safari/537.36" version="25.0.3">
  <diagram name="Page-1" id="Qyxl75BDVXsoEAQX6Zr2">
    <mxGraphModel dx="3827" dy="1491" grid="1" gridSize="10" guides="1" tooltips="1" connect="1" arrows="1" fold="1" page="1" pageScale="1" pageWidth="827" pageHeight="1169" math="0" shadow="0">
      <root>
        <mxCell id="0" />
        <mxCell id="1" parent="0" />
        <mxCell id="Em9keYI48M2V4-0kK0o6-1" value="Address" style="shape=table;startSize=30;container=1;collapsible=1;childLayout=tableLayout;fixedRows=1;rowLines=0;fontStyle=1;align=center;resizeLast=1;html=1;strokeWidth=2;opacity=90;" vertex="1" parent="1">
          <mxGeometry x="741" y="481" width="180" height="150" as="geometry" />
        </mxCell>
        <mxCell id="Em9keYI48M2V4-0kK0o6-2" value="" style="shape=tableRow;horizontal=0;startSize=0;swimlaneHead=0;swimlaneBody=0;fillColor=none;collapsible=0;dropTarget=0;points=[[0,0.5],[1,0.5]];portConstraint=eastwest;top=0;left=0;right=0;bottom=1;" vertex="1" parent="Em9keYI48M2V4-0kK0o6-1">
          <mxGeometry y="30" width="180" height="30" as="geometry" />
        </mxCell>
        <mxCell id="Em9keYI48M2V4-0kK0o6-3" value="PK" style="shape=partialRectangle;connectable=0;fillColor=none;top=0;left=0;bottom=0;right=0;fontStyle=1;overflow=hidden;whiteSpace=wrap;html=1;" vertex="1" parent="Em9keYI48M2V4-0kK0o6-2">
          <mxGeometry width="30" height="30" as="geometry">
            <mxRectangle width="30" height="30" as="alternateBounds" />
          </mxGeometry>
        </mxCell>
        <mxCell id="Em9keYI48M2V4-0kK0o6-4" value="a_id" style="shape=partialRectangle;connectable=0;fillColor=none;top=0;left=0;bottom=0;right=0;align=left;spacingLeft=6;fontStyle=5;overflow=hidden;whiteSpace=wrap;html=1;" vertex="1" parent="Em9keYI48M2V4-0kK0o6-2">
          <mxGeometry x="30" width="150" height="30" as="geometry">
            <mxRectangle width="150" height="30" as="alternateBounds" />
          </mxGeometry>
        </mxCell>
        <mxCell id="Em9keYI48M2V4-0kK0o6-5" value="" style="shape=tableRow;horizontal=0;startSize=0;swimlaneHead=0;swimlaneBody=0;fillColor=none;collapsible=0;dropTarget=0;points=[[0,0.5],[1,0.5]];portConstraint=eastwest;top=0;left=0;right=0;bottom=0;" vertex="1" parent="Em9keYI48M2V4-0kK0o6-1">
          <mxGeometry y="60" width="180" height="30" as="geometry" />
        </mxCell>
        <mxCell id="Em9keYI48M2V4-0kK0o6-6" value="" style="shape=partialRectangle;connectable=0;fillColor=none;top=0;left=0;bottom=0;right=0;editable=1;overflow=hidden;whiteSpace=wrap;html=1;" vertex="1" parent="Em9keYI48M2V4-0kK0o6-5">
          <mxGeometry width="30" height="30" as="geometry">
            <mxRectangle width="30" height="30" as="alternateBounds" />
          </mxGeometry>
        </mxCell>
        <mxCell id="Em9keYI48M2V4-0kK0o6-7" value="house_details" style="shape=partialRectangle;connectable=0;fillColor=none;top=0;left=0;bottom=0;right=0;align=left;spacingLeft=6;overflow=hidden;whiteSpace=wrap;html=1;" vertex="1" parent="Em9keYI48M2V4-0kK0o6-5">
          <mxGeometry x="30" width="150" height="30" as="geometry">
            <mxRectangle width="150" height="30" as="alternateBounds" />
          </mxGeometry>
        </mxCell>
        <mxCell id="Em9keYI48M2V4-0kK0o6-8" value="" style="shape=tableRow;horizontal=0;startSize=0;swimlaneHead=0;swimlaneBody=0;fillColor=none;collapsible=0;dropTarget=0;points=[[0,0.5],[1,0.5]];portConstraint=eastwest;top=0;left=0;right=0;bottom=0;" vertex="1" parent="Em9keYI48M2V4-0kK0o6-1">
          <mxGeometry y="90" width="180" height="30" as="geometry" />
        </mxCell>
        <mxCell id="Em9keYI48M2V4-0kK0o6-9" value="" style="shape=partialRectangle;connectable=0;fillColor=none;top=0;left=0;bottom=0;right=0;editable=1;overflow=hidden;whiteSpace=wrap;html=1;" vertex="1" parent="Em9keYI48M2V4-0kK0o6-8">
          <mxGeometry width="30" height="30" as="geometry">
            <mxRectangle width="30" height="30" as="alternateBounds" />
          </mxGeometry>
        </mxCell>
        <mxCell id="Em9keYI48M2V4-0kK0o6-10" value="state" style="shape=partialRectangle;connectable=0;fillColor=none;top=0;left=0;bottom=0;right=0;align=left;spacingLeft=6;overflow=hidden;whiteSpace=wrap;html=1;" vertex="1" parent="Em9keYI48M2V4-0kK0o6-8">
          <mxGeometry x="30" width="150" height="30" as="geometry">
            <mxRectangle width="150" height="30" as="alternateBounds" />
          </mxGeometry>
        </mxCell>
        <mxCell id="Em9keYI48M2V4-0kK0o6-11" value="" style="shape=tableRow;horizontal=0;startSize=0;swimlaneHead=0;swimlaneBody=0;fillColor=none;collapsible=0;dropTarget=0;points=[[0,0.5],[1,0.5]];portConstraint=eastwest;top=0;left=0;right=0;bottom=0;" vertex="1" parent="Em9keYI48M2V4-0kK0o6-1">
          <mxGeometry y="120" width="180" height="30" as="geometry" />
        </mxCell>
        <mxCell id="Em9keYI48M2V4-0kK0o6-12" value="" style="shape=partialRectangle;connectable=0;fillColor=none;top=0;left=0;bottom=0;right=0;editable=1;overflow=hidden;whiteSpace=wrap;html=1;" vertex="1" parent="Em9keYI48M2V4-0kK0o6-11">
          <mxGeometry width="30" height="30" as="geometry">
            <mxRectangle width="30" height="30" as="alternateBounds" />
          </mxGeometry>
        </mxCell>
        <mxCell id="Em9keYI48M2V4-0kK0o6-13" value="city" style="shape=partialRectangle;connectable=0;fillColor=none;top=0;left=0;bottom=0;right=0;align=left;spacingLeft=6;overflow=hidden;whiteSpace=wrap;html=1;" vertex="1" parent="Em9keYI48M2V4-0kK0o6-11">
          <mxGeometry x="30" width="150" height="30" as="geometry">
            <mxRectangle width="150" height="30" as="alternateBounds" />
          </mxGeometry>
        </mxCell>
        <mxCell id="Em9keYI48M2V4-0kK0o6-14" value="Student" style="shape=table;startSize=30;container=1;collapsible=1;childLayout=tableLayout;fixedRows=1;rowLines=0;fontStyle=1;align=center;resizeLast=1;html=1;strokeWidth=2;opacity=90;" vertex="1" parent="1">
          <mxGeometry x="13" y="481" width="180" height="150" as="geometry" />
        </mxCell>
        <mxCell id="Em9keYI48M2V4-0kK0o6-15" value="" style="shape=tableRow;horizontal=0;startSize=0;swimlaneHead=0;swimlaneBody=0;fillColor=none;collapsible=0;dropTarget=0;points=[[0,0.5],[1,0.5]];portConstraint=eastwest;top=0;left=0;right=0;bottom=1;" vertex="1" parent="Em9keYI48M2V4-0kK0o6-14">
          <mxGeometry y="30" width="180" height="30" as="geometry" />
        </mxCell>
        <mxCell id="Em9keYI48M2V4-0kK0o6-16" value="PK" style="shape=partialRectangle;connectable=0;fillColor=none;top=0;left=0;bottom=0;right=0;fontStyle=1;overflow=hidden;whiteSpace=wrap;html=1;" vertex="1" parent="Em9keYI48M2V4-0kK0o6-15">
          <mxGeometry width="30" height="30" as="geometry">
            <mxRectangle width="30" height="30" as="alternateBounds" />
          </mxGeometry>
        </mxCell>
        <mxCell id="Em9keYI48M2V4-0kK0o6-17" value="s_id" style="shape=partialRectangle;connectable=0;fillColor=none;top=0;left=0;bottom=0;right=0;align=left;spacingLeft=6;fontStyle=5;overflow=hidden;whiteSpace=wrap;html=1;" vertex="1" parent="Em9keYI48M2V4-0kK0o6-15">
          <mxGeometry x="30" width="150" height="30" as="geometry">
            <mxRectangle width="150" height="30" as="alternateBounds" />
          </mxGeometry>
        </mxCell>
        <mxCell id="Em9keYI48M2V4-0kK0o6-18" value="" style="shape=tableRow;horizontal=0;startSize=0;swimlaneHead=0;swimlaneBody=0;fillColor=none;collapsible=0;dropTarget=0;points=[[0,0.5],[1,0.5]];portConstraint=eastwest;top=0;left=0;right=0;bottom=0;" vertex="1" parent="Em9keYI48M2V4-0kK0o6-14">
          <mxGeometry y="60" width="180" height="30" as="geometry" />
        </mxCell>
        <mxCell id="Em9keYI48M2V4-0kK0o6-19" value="" style="shape=partialRectangle;connectable=0;fillColor=none;top=0;left=0;bottom=0;right=0;editable=1;overflow=hidden;whiteSpace=wrap;html=1;" vertex="1" parent="Em9keYI48M2V4-0kK0o6-18">
          <mxGeometry width="30" height="30" as="geometry">
            <mxRectangle width="30" height="30" as="alternateBounds" />
          </mxGeometry>
        </mxCell>
        <mxCell id="Em9keYI48M2V4-0kK0o6-20" value="name" style="shape=partialRectangle;connectable=0;fillColor=none;top=0;left=0;bottom=0;right=0;align=left;spacingLeft=6;overflow=hidden;whiteSpace=wrap;html=1;" vertex="1" parent="Em9keYI48M2V4-0kK0o6-18">
          <mxGeometry x="30" width="150" height="30" as="geometry">
            <mxRectangle width="150" height="30" as="alternateBounds" />
          </mxGeometry>
        </mxCell>
        <mxCell id="Em9keYI48M2V4-0kK0o6-21" value="" style="shape=tableRow;horizontal=0;startSize=0;swimlaneHead=0;swimlaneBody=0;fillColor=none;collapsible=0;dropTarget=0;points=[[0,0.5],[1,0.5]];portConstraint=eastwest;top=0;left=0;right=0;bottom=0;" vertex="1" parent="Em9keYI48M2V4-0kK0o6-14">
          <mxGeometry y="90" width="180" height="30" as="geometry" />
        </mxCell>
        <mxCell id="Em9keYI48M2V4-0kK0o6-22" value="" style="shape=partialRectangle;connectable=0;fillColor=none;top=0;left=0;bottom=0;right=0;editable=1;overflow=hidden;whiteSpace=wrap;html=1;" vertex="1" parent="Em9keYI48M2V4-0kK0o6-21">
          <mxGeometry width="30" height="30" as="geometry">
            <mxRectangle width="30" height="30" as="alternateBounds" />
          </mxGeometry>
        </mxCell>
        <mxCell id="Em9keYI48M2V4-0kK0o6-23" value="mobile" style="shape=partialRectangle;connectable=0;fillColor=none;top=0;left=0;bottom=0;right=0;align=left;spacingLeft=6;overflow=hidden;whiteSpace=wrap;html=1;" vertex="1" parent="Em9keYI48M2V4-0kK0o6-21">
          <mxGeometry x="30" width="150" height="30" as="geometry">
            <mxRectangle width="150" height="30" as="alternateBounds" />
          </mxGeometry>
        </mxCell>
        <mxCell id="Em9keYI48M2V4-0kK0o6-24" value="" style="shape=tableRow;horizontal=0;startSize=0;swimlaneHead=0;swimlaneBody=0;fillColor=none;collapsible=0;dropTarget=0;points=[[0,0.5],[1,0.5]];portConstraint=eastwest;top=0;left=0;right=0;bottom=0;" vertex="1" parent="Em9keYI48M2V4-0kK0o6-14">
          <mxGeometry y="120" width="180" height="30" as="geometry" />
        </mxCell>
        <mxCell id="Em9keYI48M2V4-0kK0o6-25" value="FK" style="shape=partialRectangle;connectable=0;fillColor=none;top=0;left=0;bottom=0;right=0;fontStyle=0;overflow=hidden;whiteSpace=wrap;html=1;" vertex="1" parent="Em9keYI48M2V4-0kK0o6-24">
          <mxGeometry width="30" height="30" as="geometry">
            <mxRectangle width="30" height="30" as="alternateBounds" />
          </mxGeometry>
        </mxCell>
        <mxCell id="Em9keYI48M2V4-0kK0o6-26" value="a_id" style="shape=partialRectangle;connectable=0;fillColor=none;top=0;left=0;bottom=0;right=0;align=left;spacingLeft=6;fontStyle=0;overflow=hidden;whiteSpace=wrap;html=1;" vertex="1" parent="Em9keYI48M2V4-0kK0o6-24">
          <mxGeometry x="30" width="150" height="30" as="geometry">
            <mxRectangle width="150" height="30" as="alternateBounds" />
          </mxGeometry>
        </mxCell>
        <mxCell id="Em9keYI48M2V4-0kK0o6-27" value="Student" style="rounded=1;arcSize=10;whiteSpace=wrap;html=1;align=center;strokeWidth=2;opacity=90;" vertex="1" parent="1">
          <mxGeometry x="91" y="208" width="100" height="40" as="geometry" />
        </mxCell>
        <mxCell id="Em9keYI48M2V4-0kK0o6-28" value="Address" style="rounded=1;arcSize=10;whiteSpace=wrap;html=1;align=center;strokeWidth=2;opacity=90;" vertex="1" parent="1">
          <mxGeometry x="611" y="208" width="100" height="40" as="geometry" />
        </mxCell>
        <mxCell id="Em9keYI48M2V4-0kK0o6-29" value="" style="endArrow=none;html=1;rounded=0;entryX=0;entryY=0.5;entryDx=0;entryDy=0;exitX=1;exitY=0.5;exitDx=0;exitDy=0;strokeWidth=2;opacity=90;" edge="1" parent="1" source="Em9keYI48M2V4-0kK0o6-27" target="Em9keYI48M2V4-0kK0o6-28">
          <mxGeometry relative="1" as="geometry">
            <mxPoint x="143" y="117" as="sourcePoint" />
            <mxPoint x="511" y="195" as="targetPoint" />
            <Array as="points" />
          </mxGeometry>
        </mxCell>
        <mxCell id="Em9keYI48M2V4-0kK0o6-30" value="1" style="resizable=0;html=1;whiteSpace=wrap;align=right;verticalAlign=bottom;" connectable="0" vertex="1" parent="Em9keYI48M2V4-0kK0o6-29">
          <mxGeometry x="1" relative="1" as="geometry" />
        </mxCell>
        <mxCell id="Em9keYI48M2V4-0kK0o6-31" value="s_id" style="ellipse;whiteSpace=wrap;html=1;align=center;strokeWidth=2;opacity=90;" vertex="1" parent="1">
          <mxGeometry x="-78" y="104" width="100" height="40" as="geometry" />
        </mxCell>
        <mxCell id="Em9keYI48M2V4-0kK0o6-32" value="mobile" style="ellipse;whiteSpace=wrap;html=1;align=center;strokeWidth=2;opacity=90;" vertex="1" parent="1">
          <mxGeometry x="182" y="104" width="100" height="40" as="geometry" />
        </mxCell>
        <mxCell id="Em9keYI48M2V4-0kK0o6-33" value="name" style="ellipse;whiteSpace=wrap;html=1;align=center;strokeWidth=2;opacity=90;" vertex="1" parent="1">
          <mxGeometry x="53" y="78" width="100" height="40" as="geometry" />
        </mxCell>
        <mxCell id="Em9keYI48M2V4-0kK0o6-34" value="a_id" style="ellipse;whiteSpace=wrap;html=1;align=center;strokeWidth=2;opacity=90;" vertex="1" parent="1">
          <mxGeometry x="520" y="118" width="100" height="40" as="geometry" />
        </mxCell>
        <mxCell id="Em9keYI48M2V4-0kK0o6-35" value="house_Details" style="ellipse;whiteSpace=wrap;html=1;align=center;strokeWidth=2;opacity=90;" vertex="1" parent="1">
          <mxGeometry x="650" y="78" width="100" height="40" as="geometry" />
        </mxCell>
        <mxCell id="Em9keYI48M2V4-0kK0o6-36" value="city" style="ellipse;whiteSpace=wrap;html=1;align=center;strokeWidth=2;opacity=90;" vertex="1" parent="1">
          <mxGeometry x="821" y="91" width="100" height="40" as="geometry" />
        </mxCell>
        <mxCell id="Em9keYI48M2V4-0kK0o6-37" value="state&lt;div&gt;&lt;br&gt;&lt;/div&gt;" style="ellipse;whiteSpace=wrap;html=1;align=center;strokeWidth=2;opacity=90;" vertex="1" parent="1">
          <mxGeometry x="858" y="168" width="100" height="40" as="geometry" />
        </mxCell>
        <mxCell id="Em9keYI48M2V4-0kK0o6-38" value="" style="endArrow=none;html=1;rounded=0;entryX=0.5;entryY=1;entryDx=0;entryDy=0;exitX=0.5;exitY=0;exitDx=0;exitDy=0;strokeWidth=2;opacity=90;" edge="1" parent="1" source="Em9keYI48M2V4-0kK0o6-27" target="Em9keYI48M2V4-0kK0o6-33">
          <mxGeometry relative="1" as="geometry">
            <mxPoint x="104" y="207" as="sourcePoint" />
            <mxPoint x="264" y="207" as="targetPoint" />
          </mxGeometry>
        </mxCell>
        <mxCell id="Em9keYI48M2V4-0kK0o6-39" value="" style="endArrow=none;html=1;rounded=0;entryX=0.646;entryY=0.97;entryDx=0;entryDy=0;entryPerimeter=0;strokeWidth=2;opacity=90;" edge="1" parent="1" target="Em9keYI48M2V4-0kK0o6-31">
          <mxGeometry relative="1" as="geometry">
            <mxPoint x="143" y="208" as="sourcePoint" />
            <mxPoint x="116" y="131" as="targetPoint" />
            <Array as="points" />
          </mxGeometry>
        </mxCell>
        <mxCell id="Em9keYI48M2V4-0kK0o6-40" value="" style="endArrow=none;html=1;rounded=0;entryX=0.5;entryY=1;entryDx=0;entryDy=0;exitX=0.5;exitY=0;exitDx=0;exitDy=0;strokeWidth=2;opacity=90;" edge="1" parent="1" source="Em9keYI48M2V4-0kK0o6-27" target="Em9keYI48M2V4-0kK0o6-32">
          <mxGeometry relative="1" as="geometry">
            <mxPoint x="156" y="221" as="sourcePoint" />
            <mxPoint y="156" as="targetPoint" />
            <Array as="points" />
          </mxGeometry>
        </mxCell>
        <mxCell id="Em9keYI48M2V4-0kK0o6-41" value="" style="endArrow=none;html=1;rounded=0;entryX=0.5;entryY=1;entryDx=0;entryDy=0;exitX=0.58;exitY=0.03;exitDx=0;exitDy=0;exitPerimeter=0;strokeWidth=2;opacity=90;" edge="1" parent="1" source="Em9keYI48M2V4-0kK0o6-28">
          <mxGeometry relative="1" as="geometry">
            <mxPoint x="750" y="195" as="sourcePoint" />
            <mxPoint x="841" y="131" as="targetPoint" />
            <Array as="points" />
          </mxGeometry>
        </mxCell>
        <mxCell id="Em9keYI48M2V4-0kK0o6-42" value="" style="endArrow=none;html=1;rounded=0;entryX=0.5;entryY=1;entryDx=0;entryDy=0;exitX=0.604;exitY=-0.03;exitDx=0;exitDy=0;exitPerimeter=0;strokeWidth=2;opacity=90;" edge="1" parent="1" source="Em9keYI48M2V4-0kK0o6-28">
          <mxGeometry relative="1" as="geometry">
            <mxPoint x="767" y="248" as="sourcePoint" />
            <mxPoint x="858" y="184" as="targetPoint" />
            <Array as="points" />
          </mxGeometry>
        </mxCell>
        <mxCell id="Em9keYI48M2V4-0kK0o6-43" value="" style="endArrow=none;html=1;rounded=0;entryX=0.5;entryY=1;entryDx=0;entryDy=0;exitX=0.588;exitY=0.11;exitDx=0;exitDy=0;exitPerimeter=0;strokeWidth=2;opacity=90;" edge="1" parent="1">
          <mxGeometry relative="1" as="geometry">
            <mxPoint x="674.3000000000002" y="212.39999999999998" as="sourcePoint" />
            <mxPoint x="711" y="118" as="targetPoint" />
            <Array as="points" />
          </mxGeometry>
        </mxCell>
        <mxCell id="Em9keYI48M2V4-0kK0o6-44" value="" style="endArrow=none;html=1;rounded=0;entryX=0.636;entryY=-0.03;entryDx=0;entryDy=0;entryPerimeter=0;exitX=0.73;exitY=1;exitDx=0;exitDy=0;exitPerimeter=0;strokeWidth=2;opacity=90;" edge="1" parent="1" source="Em9keYI48M2V4-0kK0o6-34" target="Em9keYI48M2V4-0kK0o6-28">
          <mxGeometry relative="1" as="geometry">
            <mxPoint x="351" y="208" as="sourcePoint" />
            <mxPoint x="598" y="221" as="targetPoint" />
          </mxGeometry>
        </mxCell>
        <mxCell id="Em9keYI48M2V4-0kK0o6-45" value="" style="endArrow=none;html=1;rounded=0;entryX=1.013;entryY=0.847;entryDx=0;entryDy=0;entryPerimeter=0;strokeWidth=2;opacity=90;" edge="1" parent="1" target="Em9keYI48M2V4-0kK0o6-21">
          <mxGeometry relative="1" as="geometry">
            <mxPoint x="13" y="598" as="sourcePoint" />
            <mxPoint x="173" y="598" as="targetPoint" />
            <Array as="points">
              <mxPoint x="91" y="598" />
            </Array>
          </mxGeometry>
        </mxCell>
        <mxCell id="Em9keYI48M2V4-0kK0o6-46" value="" style="edgeStyle=entityRelationEdgeStyle;fontSize=12;html=1;endArrow=ERzeroToOne;endFill=1;rounded=0;entryX=0;entryY=0.5;entryDx=0;entryDy=0;strokeWidth=2;opacity=90;" edge="1" parent="1" source="Em9keYI48M2V4-0kK0o6-24" target="Em9keYI48M2V4-0kK0o6-2">
          <mxGeometry width="100" height="100" relative="1" as="geometry">
            <mxPoint x="390" y="568" as="sourcePoint" />
            <mxPoint x="490" y="468" as="targetPoint" />
            <Array as="points">
              <mxPoint x="715" y="520" />
              <mxPoint x="728" y="526" />
              <mxPoint x="754" y="526" />
            </Array>
          </mxGeometry>
        </mxCell>
        <mxCell id="Em9keYI48M2V4-0kK0o6-47" value="Text" style="edgeLabel;html=1;align=center;verticalAlign=middle;resizable=0;points=[];" vertex="1" connectable="0" parent="Em9keYI48M2V4-0kK0o6-46">
          <mxGeometry x="-0.0834" y="8" relative="1" as="geometry">
            <mxPoint as="offset" />
          </mxGeometry>
        </mxCell>
      </root>
    </mxGraphModel>
  </diagram>
</mxfile>
